<?xml version="1.0" encoding="utf-8"?>
<!DOCTYPE svg PUBLIC "-//W3C//DTD SVG 1.0//EN" "http://www.w3.org/TR/2001/REC-SVG-20010904/DTD/svg10.dtd">
<svg version="1.0" xmlns="http://www.w3.org/2000/svg" width="150px" height="150px" viewBox="0 0 150 150" preserveAspectRatio="xMidYMid meet">
 <g fill="#3cb3b2">
  <path d="M68.2 128.4 c-9.1 -1.9 -13.1 -4.6 -28 -19.5 l-13.4 -13.2 22.8 -22.8 c19.6 -19.6 23 -22.6 24.5 -21.6 1.3 0.8 2.1 0.8 3.1 -0.1 1.1 -0.9 6 3.5 24.1 21.6 l22.8 22.7 -14.8 14.6 c-12.5 12.4 -15.6 14.9 -20.3 16.6 -7.7 2.8 -13.5 3.3 -20.8 1.7z"/>
 </g>
 <g fill="#3fd39f">
  <path d="M98.2 75.7 l-22.8 -22.7 -2.7 2.7 -2.7 2.8 0 -4.8 c0 -4.9 0.9 -5.8 3 -3.2 0.7 0.8 1.8 1.5 2.4 1.5 0.6 0 6.3 -5.2 12.6 -11.6 12.7 -12.8 16.8 -15.3 24.8 -15.4 7.6 0 11.8 2.6 23.7 14.5 11.1 11.2 12.5 13.7 12.5 22.8 0 7.1 -2.5 10.8 -15.9 24.2 l-12.1 11.9 -22.8 -22.7z"/>
 </g>
 <g fill="#4affaf">
  <path d="M17.8 86.3 c-12.4 -12.5 -15.8 -17.7 -15.8 -24.8 0 -6.5 3.4 -12.2 13.3 -22.3 13.4 -13.8 21.3 -16.8 31.7 -12.1 6.5 2.9 26.9 23.3 26.3 26.3 -0.5 1.8 -41.9 44.6 -43.3 44.6 -0.3 0 -5.8 -5.3 -12.2 -11.7z"/>
 </g>
</svg>